<svg width="89" height="36" viewBox="0 0 89 36" fill="none" xmlns="http://www.w3.org/2000/svg">
<path d="M68.6084 21.8875H68.6504L72.1074 13.1111H74.5381L67.0674 30.7058H64.7617L67.5391 24.5515L62.6367 13.1111H65.0674L68.6084 21.8875ZM56.916 12.7126C58.5685 12.7127 59.8739 13.1686 60.832 14.0662C61.79 14.9637 62.2627 16.2173 62.2627 17.7986V25.3347H60.124V23.6394H60.0264C59.096 25.0355 57.8742 25.734 56.333 25.7341C55.0277 25.7341 53.9159 25.3347 53.041 24.5369C52.1804 23.7961 51.695 22.6993 51.7227 21.5457C51.7227 20.2777 52.1946 19.2802 53.125 18.5251C54.0554 17.7701 55.3051 17.3992 56.8604 17.3992C58.1935 17.3992 59.2767 17.656 60.1377 18.1404V17.613C60.1376 16.8295 59.8039 16.0888 59.2207 15.5759C58.6236 15.0346 57.8598 14.7351 57.0684 14.7351C55.8187 14.7352 54.8324 15.2765 54.1104 16.3591L52.1387 15.0916C53.1941 13.5102 54.7914 12.7126 56.916 12.7126ZM46.3203 7.46948C47.7506 7.44102 49.1396 7.99647 50.1533 9.02222C52.1807 10.9598 52.3057 14.2229 50.4033 16.3171L50.1533 16.573C49.1118 17.5845 47.8339 18.0974 46.3203 18.0974H42.626V25.3347H40.3906V7.46948H46.3203ZM57.208 19.2517C56.3055 19.2517 55.5417 19.4792 54.9307 19.9207C54.3336 20.3622 54.0275 20.9182 54.0273 21.5876C54.0273 22.186 54.3054 22.7418 54.7637 23.0837C55.2637 23.4827 55.875 23.6966 56.5 23.6824C57.4443 23.6823 58.3471 23.2977 59.0137 22.614C59.7497 21.9018 60.1249 21.0611 60.125 20.0925C59.4306 19.5227 58.458 19.2375 57.208 19.2517ZM42.627 15.9041H46.377C47.2101 15.9324 48.0156 15.5898 48.585 14.9773C49.7515 13.7378 49.7239 11.7433 48.5156 10.5466C47.9463 9.97685 47.1824 9.66391 46.377 9.66382H42.627V15.9041Z" fill="#3C4043"/>
<path d="M34.9062 16.5305C34.9062 15.8324 34.8507 15.1343 34.7396 14.4504H25.3105V18.3968H30.7124C30.4903 19.6648 29.7682 20.8045 28.7128 21.5169V24.0813H31.9345C33.8231 22.3004 34.9062 19.6648 34.9062 16.5305Z" fill="#4285F4"/>
<path d="M25.31 26.5602C28.004 26.5602 30.2814 25.6484 31.9339 24.0813L28.7122 21.5168C27.8096 22.1437 26.657 22.4999 25.31 22.4999C22.6993 22.4999 20.4913 20.6905 19.6998 18.2686H16.3809V20.9185C18.075 24.3804 21.5328 26.5602 25.31 26.5602Z" fill="#34A853"/>
<path d="M19.7009 18.2685C19.2843 17.0005 19.2843 15.6186 19.7009 14.3363V11.7007H16.3815C14.951 14.5928 14.951 18.012 16.3815 20.9041L19.7009 18.2685Z" fill="#FBBC04"/>
<path d="M25.31 10.1052C26.7403 10.0767 28.1151 10.6323 29.1427 11.6438L32.0033 8.70897C30.1842 6.97085 27.7957 6.01632 25.31 6.04481C21.5328 6.04481 18.075 8.23882 16.3809 11.7008L19.6998 14.3507C20.4913 11.9145 22.6993 10.1052 25.31 10.1052Z" fill="#EA4335"/>
</svg>
