<svg width="56" height="24" viewBox="0 0 56 24" fill="none" xmlns="http://www.w3.org/2000/svg">
<path d="M37.9443 5.10767C40.6171 5.10782 43.1371 7.5674 43.1523 12.0823C43.1523 17.0177 40.6627 19.26 37.9287 19.26C36.5847 19.26 35.7754 18.6834 35.2256 18.2786L35.21 22.6848L31.3916 23.51V5.35669H34.752L34.9502 6.32153C35.4848 5.82332 36.4475 5.10767 37.9443 5.10767ZM5.36621 5.10767C6.63368 5.10772 7.88585 5.30985 9.15332 5.82349V9.48267C7.99269 8.84444 6.52692 8.4857 5.36621 8.4856C4.55678 8.4856 4.06747 8.71935 4.06738 9.32642C4.06738 11.0702 9.88707 10.2454 9.90234 14.885C9.90222 17.6717 7.71781 19.2756 4.54102 19.2756C3.22748 19.2756 1.79155 19.0107 0.371094 18.3879V14.6819C1.65408 15.3981 3.2733 15.928 4.54102 15.928C5.39631 15.928 6.00684 15.6939 6.00684 14.9778C6.00601 13.1255 0.203125 13.8097 0.203125 9.51294C0.203361 6.75749 2.26583 5.10767 5.36621 5.10767ZM14.377 5.37231H17.2793V8.68872H14.377V14.2151C14.377 16.5193 16.7905 15.8032 17.2793 15.6008V18.761C16.7753 19.0412 15.8587 19.2756 14.6064 19.2756C12.3459 19.2756 10.6504 17.5779 10.6504 15.2737L10.665 2.80298L14.3926 1.99341L14.377 5.37231ZM49.6748 5.10767C53.2943 5.10788 55.1883 8.2522 55.1885 12.2375C55.1885 12.611 55.1573 13.4203 55.1572 13.6233H47.6885C47.8565 15.4604 49.1708 15.9905 50.6523 15.9905C52.164 15.9904 53.3551 15.6632 54.3936 15.134V18.2473C53.355 18.8389 51.9805 19.26 50.1631 19.26C46.4365 19.26 43.84 16.8933 43.8398 12.2073C43.8398 8.25272 46.0397 5.10767 49.6748 5.10767ZM22.0293 6.52368C22.9305 4.8427 24.7173 5.1855 25.2061 5.37231V8.95337C24.7326 8.78211 23.2058 8.56412 22.3047 9.76294V18.9954H18.4854V5.37231H21.7852L22.0293 6.52368ZM29.9717 18.9954H26.1377V5.37231H29.9717V18.9954ZM37.0273 8.56372C36.1569 8.5638 35.607 8.87497 35.21 9.32642L35.2256 15.1028C35.5921 15.5074 36.1265 15.8341 37.0273 15.8342C38.4324 15.8342 39.3797 14.2777 39.3799 12.1917C39.3799 10.1521 38.4172 8.56372 37.0273 8.56372ZM49.6592 8.26782C48.6969 8.26782 47.6426 8.99973 47.6426 10.759H51.584C51.584 8.99982 50.5908 8.2679 49.6592 8.26782ZM29.9717 3.3479L26.1377 4.18872V1.01294L29.9717 0.187744V3.3479Z" fill="#6461FC"/>
</svg>
