<svg width="66" height="22" viewBox="0 0 66 22" fill="none" xmlns="http://www.w3.org/2000/svg">
<path d="M25.0598 0.716657L16.4203 21.3321H10.7815L6.53297 4.88149C6.27142 3.867 6.04789 3.49781 5.26363 3.067C3.97895 2.37246 1.86579 1.72096 0 1.31517L0.130582 0.716785H9.20288C10.3599 0.716785 11.4002 1.48855 11.6618 2.81899L13.9082 14.7508L19.4569 0.716785L25.0598 0.716657ZM47.1473 14.5983C47.1723 9.16027 39.6227 8.8643 39.677 6.43146C39.6917 5.68883 40.3955 4.90302 41.9369 4.70463C42.7024 4.60279 44.8088 4.52816 47.1963 5.62425L48.132 1.25458C46.8475 0.788327 45.1963 0.341797 43.1441 0.341797C37.8733 0.341797 34.1627 3.14538 34.1314 7.15681C34.0969 10.1232 36.7788 11.7786 38.8017 12.7666C40.8789 13.7774 41.5734 14.4229 41.5661 15.3295C41.5525 16.7132 39.9087 17.3178 38.3755 17.345C35.6936 17.3868 34.1381 16.6203 32.8958 16.0418L31.9303 20.5616C33.1747 21.133 35.4785 21.629 37.8627 21.6583C43.4649 21.658 47.1297 18.8843 47.1473 14.5983ZM61.0665 21.3322H66L61.6952 0.716785H57.1408C56.1174 0.716785 55.2546 1.31362 54.8702 2.22795L46.8726 21.3322H52.4704L53.5816 18.2534H60.4242L61.0665 21.3322ZM55.1157 14.028L57.924 6.28721L59.5396 14.028H55.1157ZM32.681 0.716657L28.2685 21.3321H22.9345L27.348 0.716657H32.681Z" fill="#1A2ADF"/>
</svg>
